<?xml version="1.0" standalone="no"?>
<!DOCTYPE svg PUBLIC "-//W3C//DTD SVG 1.1//EN" "http://www.w3.org/Graphics/SVG/1.1/DTD/svg11.dtd" >
<svg xmlns="http://www.w3.org/2000/svg">
<metadata>
This is a custom SVG webfont generated by Font Squirrel.
Copyright   : Copyright 19902003 Bitstream Inc All rights reserved
</metadata>
<defs>
<font id="webfontd2nBnzM1" horiz-adv-x="1141" >
<font-face units-per-em="2048" ascent="1556" descent="-492" />
<missing-glyph horiz-adv-x="569" />
<glyph unicode=" "  horiz-adv-x="569" />
<glyph unicode="&#x09;" horiz-adv-x="569" />
<glyph unicode="&#xa0;" horiz-adv-x="569" />
<glyph unicode="!" horiz-adv-x="666" d="M211 252h242v-252h-242v252zM209 1473h244v-443l-58 -651h-125l-61 651v443z" />
<glyph unicode="&#x22;" horiz-adv-x="643" d="M395 1436h164v-557h-164v557zM86 1436h164v-557h-164v557z" />
<glyph unicode="#" horiz-adv-x="1575" d="M709 852l-91 -254h256l91 254h-256zM735 1460h191l-154 -436h250l156 436h190l-154 -436h291l-59 -172h-293l-90 -252h309l-61 -172h-307l-156 -434h-191l156 434h-252l-158 -434h-190l156 434h-299l61 172h297l90 252h-315l61 172h316z" />
<glyph unicode="$" d="M625 594v-451q106 13 163.5 71.5t57.5 154.5q0 87 -51.5 139.5t-169.5 85.5zM514 1243q-93 -3 -148 -57t-55 -142q0 -82 48 -130.5t155 -71.5v401zM514 1561h111v-136q198 -15 305.5 -118t111.5 -279h-219q-11 99 -60.5 152t-137.5 61v-422q253 -67 350.5 -162.5 t97.5 -267.5q0 -180 -118 -292t-330 -132v-188h-111v186q-222 15 -334 129.5t-112 325.5v16h217v-6q0 -122 60.5 -196t168.5 -85v478q-217 43 -319.5 139.5t-102.5 255.5q0 177 114 286.5t308 119.5v135z" />
<glyph unicode="%" horiz-adv-x="1743" d="M1313 528q-78 0 -131.5 -52t-53.5 -130q0 -77 54 -131.5t131 -54.5q75 0 129.5 55t54.5 131t-54 129t-130 53zM1313 709q149 0 255.5 -106.5t106.5 -256.5t-107 -257t-255 -107q-152 0 -257.5 106t-105.5 258t105.5 257.5t257.5 105.5zM432 1231q-78 0 -131 -53.5 t-53 -130.5q0 -78 53 -131.5t131 -53.5q76 0 129 54t53 131q0 76 -53 130t-129 54zM432 1409q149 0 255 -106t106 -256t-106 -256.5t-255 -106.5q-153 0 -257.5 105t-104.5 258q0 152 105 257t257 105zM1235 1432h139l-866 -1473h-139z" />
<glyph unicode="&#x26;" horiz-adv-x="1415" d="M627 934q88 54 130 111t42 124q0 70 -40 111t-108 41q-75 0 -117 -39t-42 -106q0 -52 30.5 -107.5t104.5 -134.5zM864 309l-311 381q-114 -66 -165.5 -132.5t-51.5 -147.5q0 -106 68 -174t176 -68q77 0 150 36.5t134 104.5zM743 799l248 -303q29 52 45 112.5t21 132.5 h211q-7 -116 -41.5 -218.5t-98.5 -192.5l273 -330h-287l-125 154q-88 -96 -200.5 -143.5t-251.5 -47.5q-188 0 -310.5 123t-122.5 311q0 136 76 238t254 203q-86 102 -119.5 174t-33.5 147q0 150 100.5 244t263.5 94q165 0 260.5 -86.5t95.5 -234.5q0 -113 -63 -205.5 t-195 -171.5z" />
<glyph unicode="'" horiz-adv-x="334" d="M86 1436h164v-557h-164v557z" />
<glyph unicode="(" horiz-adv-x="719" d="M532 1479h164q-140 -233 -208 -467t-68 -484t68.5 -486t207.5 -468h-164q-173 236 -258.5 471.5t-85.5 480.5q0 244 85.5 481t258.5 472z" />
<glyph unicode=")" horiz-adv-x="719" d="M25 1479h163q172 -234 257 -470.5t85 -482.5q0 -245 -85 -481.5t-257 -470.5h-163q139 233 207.5 469.5t68.5 484.5q0 246 -68.5 481.5t-207.5 469.5z" />
<glyph unicode="*" horiz-adv-x="1024" d="M424 1473h174v-291l270 92l62 -176l-287 -76l195 -242l-152 -110l-176 254l-174 -252l-152 106l195 244l-283 78l58 176l270 -94v291z" />
<glyph unicode="+" horiz-adv-x="1706" d="M768 1221h170v-527h514v-166h-514v-528h-170v528h-514v166h514v527z" />
<glyph unicode="," horiz-adv-x="569" d="M162 256h248v-262q0 -127 -63.5 -207t-184.5 -106v106q58 12 93.5 62t35.5 118q0 1 -1 12t-1 21h-127v256z" />
<glyph unicode="-" horiz-adv-x="659" d="M68 649h524v-211h-524v211z" />
<glyph unicode="." horiz-adv-x="569" d="M162 258h248v-258h-248v258z" />
<glyph unicode="/" horiz-adv-x="631" d="M498 1511h131l-500 -1701h-129z" />
<glyph unicode="0" d="M569 1233q-134 0 -197 -130t-63 -409q0 -277 63 -405.5t197 -128.5q136 0 199 128t63 406q0 279 -63 409t-199 130zM569 1432q250 0 377 -186t127 -552q0 -364 -126.5 -549.5t-377.5 -185.5q-249 0 -375 185.5t-126 551.5t126 551t375 185z" />
<glyph unicode="1" d="M567 1432h178v-1432h-229v999h-336v166q191 0 279.5 61.5t107.5 205.5z" />
<glyph unicode="2" d="M326 207h718v-207h-987v6q0 195 86.5 331.5t294.5 264.5l82 49q291 170 291 344q0 104 -69 170t-179 66q-120 0 -189 -77.5t-69 -213.5v-22h-221v10q0 237 130 370.5t361 133.5q213 0 343.5 -119.5t130.5 -315.5q0 -143 -79 -254t-253 -213l-40 -23q-311 -180 -351 -300z " />
<glyph unicode="3" d="M831 762q109 -40 168.5 -130.5t59.5 -213.5q0 -211 -141.5 -335t-382.5 -124q-223 0 -353.5 127.5t-130.5 345.5v10h225q0 -134 69.5 -208t195.5 -74q129 0 201.5 65t72.5 181t-71 178.5t-203 62.5q-38 0 -57 -0.5t-33 -1.5v178h20h35q138 0 200 51t62 162 q0 94 -60 148.5t-163 54.5q-116 0 -179 -68t-63 -192v-12h-221v10q0 209 125.5 332t337.5 123q215 0 339 -103t124 -278q0 -103 -44.5 -175.5t-132.5 -113.5z" />
<glyph unicode="4" d="M668 1149l-424 -627h424v627zM631 1391h258v-867h186v-190h-186v-334h-225v334h-615v211z" />
<glyph unicode="5" d="M203 1391h784v-201h-620l-48 -340q52 42 118.5 63t148.5 21q213 0 344 -132.5t131 -350.5q0 -217 -145.5 -354.5t-376.5 -137.5q-209 0 -340.5 113.5t-145.5 304.5h230q10 -101 78.5 -160t175.5 -59q130 0 206 78.5t76 214.5q0 134 -75.5 212t-206.5 78q-74 0 -132.5 -29 t-101.5 -87l-205 6z" />
<glyph unicode="6" d="M584 721q-121 0 -190.5 -75.5t-69.5 -207.5q0 -130 71 -208t189 -78q119 0 188.5 79t69.5 218q0 125 -70 198.5t-188 73.5zM1057 1051h-232q-10 92 -65.5 140t-151.5 48q-138 0 -211 -112t-84 -343q63 69 139.5 100t182.5 31q194 0 319 -129t125 -331q0 -225 -134 -360.5 t-355 -135.5q-254 0 -389 176.5t-135 509.5q0 381 143.5 584t413.5 203q190 0 306.5 -102.5t127.5 -278.5z" />
<glyph unicode="7" d="M76 1391h993v-191q-243 -266 -377.5 -561.5t-169.5 -638.5h-248q32 321 167.5 612.5t379.5 567.5h-745v211z" />
<glyph unicode="8" d="M569 657q-122 0 -192 -66.5t-70 -182.5q0 -114 70.5 -181t189.5 -67q125 0 196 67t71 187q0 112 -71.5 177.5t-193.5 65.5zM846 762q107 -42 166 -134.5t59 -217.5q0 -208 -136 -329.5t-372 -121.5q-228 0 -360.5 121.5t-132.5 329.5q0 125 57.5 215t167.5 137 q-91 45 -135.5 115.5t-44.5 171.5q0 177 123.5 280t336.5 103q205 0 328 -104.5t123 -276.5q0 -101 -44.5 -172.5t-135.5 -116.5zM569 1239q-104 0 -165.5 -53t-61.5 -144q0 -96 60.5 -150t166.5 -54t168 54.5t62 147.5t-61.5 146t-168.5 53z" />
<glyph unicode="9" d="M82 340h231q6 -88 64 -138t153 -50q139 0 212 112t83 342q-59 -65 -136.5 -98t-174.5 -33q-202 0 -329.5 129t-127.5 334q0 222 136 358t358 136q254 0 387 -176t133 -511q0 -381 -143 -583.5t-412 -202.5q-194 0 -312.5 104t-121.5 277zM553 1239q-118 0 -187 -78.5 t-69 -212.5q0 -130 69.5 -204t190.5 -74q116 0 186 74t70 196q0 139 -70 219t-190 80z" />
<glyph unicode=":" horiz-adv-x="618" d="M184 258h248v-258h-248v258zM184 1071h248v-258h-248v258z" />
<glyph unicode=";" horiz-adv-x="618" d="M184 256h248v-262q0 -127 -63.5 -207t-184.5 -106v106q58 12 93.5 62t35.5 118v33h-129v256zM184 1071h248v-258h-248v258z" />
<glyph unicode="&#x3c;" horiz-adv-x="1706" d="M1442 1176v-185l-934 -381l934 -381v-182l-1178 483v160z" />
<glyph unicode="=" horiz-adv-x="1706" d="M254 487h1198v-165h-1198v165zM254 901h1198v-168h-1198v168z" />
<glyph unicode="&#x3e;" horiz-adv-x="1706" d="M264 1176l1178 -486v-160l-1178 -483v182l934 381l-934 381v185z" />
<glyph unicode="?" horiz-adv-x="1106" d="M416 252h241v-252h-241v252zM643 410h-219q0 8 -1 23t-1 22q0 103 29 178t96 143l65 62q150 138 150 258q0 95 -59.5 155t-153.5 60q-122 0 -184.5 -71.5t-68.5 -215.5h-222v25q0 217 125.5 339.5t347.5 122.5q208 0 332.5 -112t124.5 -299q0 -190 -222 -388 q-19 -17 -28 -26q-66 -59 -89.5 -109t-23.5 -124q0 -8 1 -22t1 -21z" />
<glyph unicode="@" horiz-adv-x="2048" d="M1174 283q-55 -87 -128 -127.5t-176 -40.5q-152 0 -232.5 86.5t-80.5 249.5q0 233 138 395t333 162q89 0 149 -34.5t99 -107.5l55 107h154l-148 -586q-1 -5 -2 -12q-6 -28 -6 -37q0 -38 26.5 -61t69.5 -23q51 0 107.5 30.5t105.5 84.5q72 76 110 177.5t38 215.5 q0 253 -187 411t-489 158q-138 0 -256 -31t-215 -94q-181 -113 -279 -291t-98 -395q0 -312 209.5 -499t558.5 -187q166 0 323.5 49t291.5 142l67 -99q-149 -113 -318.5 -170t-355.5 -57q-192 0 -351 48t-281 142q-155 118 -231.5 275.5t-76.5 357.5q0 165 52 313.5 t153 272.5q147 179 353.5 272t459.5 93q166 0 315 -45.5t255 -127.5q132 -102 198 -235.5t66 -300.5q0 -162 -65 -302t-185 -237q-69 -55 -150 -83.5t-168 -28.5q-106 0 -157 40.5t-51 125.5v4zM1233 707q-14 84 -61.5 130t-122.5 46q-127 0 -217.5 -128.5t-90.5 -310.5 q0 -98 45.5 -151t128.5 -53q90 0 163.5 66.5t99.5 172.5z" />
<glyph unicode="A" horiz-adv-x="1348" d="M672 1225l-219 -639h438zM535 1473h276l541 -1473h-262l-132 381h-573l-129 -381h-256z" />
<glyph unicode="B" horiz-adv-x="1393" d="M395 674v-457h385q142 0 212.5 57.5t70.5 174.5q0 116 -71 170.5t-226 54.5h-371zM395 1268v-394h348q138 0 201.5 50t63.5 157q0 94 -63.5 140.5t-192.5 46.5h-357zM156 1473h637q231 0 345.5 -93t114.5 -280q0 -105 -51.5 -186t-144.5 -119q127 -36 192.5 -127 t65.5 -232q0 -201 -137.5 -318.5t-376.5 -117.5h-645v1473z" />
<glyph unicode="C" horiz-adv-x="1487" d="M1399 1012h-242q-20 133 -117.5 206.5t-255.5 73.5q-211 0 -326.5 -143t-115.5 -404q0 -263 117 -414t321 -151q162 0 267.5 95.5t117.5 252.5h240q-9 -250 -186.5 -409.5t-448.5 -159.5q-315 0 -496.5 207t-181.5 569q0 366 184 571t512 205q266 0 428.5 -133 t182.5 -366z" />
<glyph unicode="D" horiz-adv-x="1466" d="M397 1264v-1047h301q219 0 322.5 131t103.5 406q0 250 -104 380t-305 130h-318zM156 1473h569q324 0 486.5 -183.5t162.5 -548.5q0 -357 -178 -549t-512 -192h-528v1473z" />
<glyph unicode="E" horiz-adv-x="1321" d="M156 1473h1056v-216h-815v-385h752v-206h-752v-445h842v-221h-1083v1473z" />
<glyph unicode="F" horiz-adv-x="1208" d="M156 1473h1005v-216h-764v-395h670v-213h-670v-649h-241v1473z" />
<glyph unicode="G" horiz-adv-x="1577" d="M1425 1022h-243q-28 131 -126.5 204.5t-246.5 73.5q-221 0 -343 -146.5t-122 -412.5q0 -261 123 -411t336 -150q181 0 293.5 112t119.5 300h-403v203h629v-795h-162l-41 186q-82 -111 -199 -168t-264 -57q-305 0 -494.5 213.5t-189.5 560.5q0 354 191 565t510 211 q266 0 433 -129t199 -360z" />
<glyph unicode="H" horiz-adv-x="1499" d="M156 1473h245v-580h697v580h245v-1473h-245v674h-697v-674h-245v1473z" />
<glyph unicode="I" horiz-adv-x="571" d="M162 1473h246v-1473h-246v1473z" />
<glyph unicode="J" horiz-adv-x="1077" d="M690 1473h246v-1055q0 -237 -107 -347t-335 -110q-233 0 -341 113.5t-108 361.5v72h236v-94q0 -122 50 -182t152 -60q115 0 161 58.5t46 240.5v1002z" />
<glyph unicode="K" horiz-adv-x="1364" d="M156 1473h243v-666l652 666h313l-594 -592l627 -881h-299l-502 711l-197 -195v-516h-243v1473z" />
<glyph unicode="L" horiz-adv-x="1135" d="M156 1473h245v-1250h727v-223h-972v1473z" />
<glyph unicode="M" horiz-adv-x="1737" d="M156 1473h356l354 -1178l359 1178h356v-1473h-233v1217l-365 -1217h-240l-360 1217v-1217h-227v1473z" />
<glyph unicode="N" horiz-adv-x="1495" d="M156 1473h260l686 -1102v1102h237v-1473h-258l-690 1102v-1102h-235v1473z" />
<glyph unicode="O" horiz-adv-x="1597" d="M799 1298q-215 0 -336 -148.5t-121 -414.5q0 -265 121 -414t336 -149q214 0 335 149t121 414q0 266 -120.5 414.5t-335.5 148.5zM799 1511q328 0 517 -207.5t189 -568.5t-189 -568.5t-517 -207.5q-329 0 -518 207t-189 569t189 569t518 207z" />
<glyph unicode="P" horiz-adv-x="1323" d="M401 1260v-465h318q149 0 212.5 54t63.5 177q0 121 -63 177.5t-199 56.5h-332zM156 1473h561q136 0 201.5 -12.5t117.5 -41.5q101 -54 153 -155.5t52 -243.5q0 -117 -43 -209.5t-125 -153.5q-56 -41 -131 -59t-207 -18h-334v-580h-245v1473z" />
<glyph unicode="Q" horiz-adv-x="1597" d="M1329 186l170 -151l-127 -146l-190 168q-78 -47 -175 -72.5t-202 -25.5q-333 0 -523 207t-190 569q0 361 190.5 568.5t520.5 207.5q323 0 512.5 -209t189.5 -569q0 -166 -44.5 -304t-131.5 -243zM1147 346q52 65 80 168t28 227q0 259 -121.5 408t-332.5 149 q-216 0 -337.5 -148.5t-121.5 -414.5q0 -268 121.5 -415.5t341.5 -147.5q56 0 104 11t90 34l-159 141l127 146z" />
<glyph unicode="R" horiz-adv-x="1405" d="M397 1266v-453h351q154 0 221 54t67 175q0 118 -65.5 171t-216.5 53h-357zM156 1473h635q29 0 64 -2q11 -1 13 -1q195 0 305.5 -109t110.5 -300q0 -125 -55 -214t-156 -128q90 -29 129.5 -91.5t46.5 -203.5l13 -211v-2q6 -138 61 -168v-43h-274q-16 29 -24.5 68.5 t-12.5 125.5l-8 176q-8 142 -59.5 189t-174.5 47h-47h-324v-606h-243v1473z" />
<glyph unicode="S" horiz-adv-x="1341" d="M1208 1043l-233 -1q-8 125 -94.5 196t-231.5 71q-120 0 -196 -56t-76 -139q0 -84 67 -137.5t281 -108.5q325 -82 424.5 -178t99.5 -268q0 -208 -155.5 -334.5t-415.5 -126.5q-274 0 -426.5 132t-163.5 380h238q10 -143 107.5 -222t264.5 -79q126 0 206.5 61t80.5 150 q0 35 -22.5 79.5t-57.5 76.5q-58 53 -258 102q-43 11 -65 16q-247 65 -349 165.5t-102 273.5q0 184 149.5 299.5t397.5 115.5q241 0 384.5 -126.5t145.5 -341.5z" />
<glyph unicode="T" horiz-adv-x="1190" d="M18 1473h1151v-216h-452v-1257h-244v1257h-455v216z" />
<glyph unicode="U" horiz-adv-x="1460" d="M147 1473h246v-916q0 -191 82 -282t254 -91q173 0 255.5 91.5t82.5 281.5v916h246v-930q0 -280 -152 -432t-432 -152q-287 0 -434.5 147.5t-147.5 436.5v930z" />
<glyph unicode="V" horiz-adv-x="1264" d="M0 1473h264l371 -1176l371 1176h262l-510 -1473h-246z" />
<glyph unicode="W" horiz-adv-x="1878" d="M12 1473h248l279 -1117l268 1117h260l274 -1113l281 1113h244l-404 -1473h-237l-289 1178l-283 -1178h-239z" />
<glyph unicode="X" horiz-adv-x="1257" d="M12 1473h289l330 -533l332 533h284l-473 -717l488 -756h-291l-344 559l-336 -559h-291l481 754z" />
<glyph unicode="Y" horiz-adv-x="1251" d="M-23 1473h304l360 -670l348 670h283l-506 -891v-582h-246v571z" />
<glyph unicode="Z" horiz-adv-x="1227" d="M90 1473h1106v-216l-848 -1040h842v-217h-1141v205l858 1055h-817v213z" />
<glyph unicode="[" horiz-adv-x="750" d="M244 1473h444v-173h-225v-1550h225v-170h-444v1893z" />
<glyph unicode="\" horiz-adv-x="631" d="M131 1511l496 -1701h-127l-500 1701h131z" />
<glyph unicode="]" horiz-adv-x="750" d="M68 1473h444v-1893h-444v170h225v1550h-225v173z" />
<glyph unicode="^" horiz-adv-x="2048" d="M915 1460h218l495 -561h-207l-397 397l-399 -397h-207z" />
<glyph unicode="_" horiz-adv-x="1024" d="M0 -311h1024v-172h-1024v172z" />
<glyph unicode="`" horiz-adv-x="1024" d="M238 1575h225l201 -358h-129z" />
<glyph unicode="a" horiz-adv-x="1128" d="M768 541q-72 -37 -229 -60q-57 -9 -84 -14q-80 -15 -119 -55.5t-39 -106.5q0 -74 46 -114.5t130 -40.5q127 0 211 72t84 184v135zM778 143q-66 -85 -159 -131.5t-199 -46.5q-163 0 -255.5 85t-92.5 235q0 164 99 246.5t359 115.5l23 3q217 28 217 124q0 78 -54 115 t-167 37q-105 0 -161 -44t-56 -126v-8h-217v18q0 161 118.5 254.5t323.5 93.5q215 0 324.5 -80.5t109.5 -238.5v-535q0 -62 14.5 -81t51.5 -19q7 0 15.5 0.5t29.5 2.5v-167q-31 -8 -60.5 -12t-56.5 -4q-104 0 -154.5 40t-52.5 123z" />
<glyph unicode="b" horiz-adv-x="1233" d="M643 913q-142 0 -214.5 -94.5t-72.5 -279.5q0 -181 74.5 -277t212.5 -96q133 0 208 97t75 269q0 181 -75 281t-208 100zM139 1473h221v-537q59 88 143.5 133t192.5 45q206 0 333.5 -159t127.5 -420q0 -257 -127.5 -413.5t-335.5 -156.5q-107 0 -187 42t-149 134v-141 h-219v1473z" />
<glyph unicode="c" horiz-adv-x="1100" d="M1044 711h-225q-9 96 -71 151.5t-162 55.5q-134 0 -202.5 -95.5t-68.5 -281.5q0 -182 68 -277.5t197 -95.5q103 0 166.5 58.5t78.5 168.5h222q-16 -201 -145.5 -315.5t-344.5 -114.5q-221 0 -350 154t-129 418q0 270 133.5 423.5t368.5 153.5q205 0 329.5 -107.5 t134.5 -295.5z" />
<glyph unicode="d" horiz-adv-x="1235" d="M592 913q-134 0 -208.5 -100t-74.5 -281q0 -172 75 -269t208 -97q139 0 213 97.5t74 283.5q0 180 -73 273t-214 93zM874 1473h222v-1473h-219v141q-70 -91 -151 -133.5t-185 -42.5q-207 0 -335 156.5t-128 413.5q0 260 128 419.5t333 159.5q109 0 192.5 -41.5 t142.5 -126.5v527z" />
<glyph unicode="e" d="M1071 477h-753q3 -151 74 -232t200 -81q92 0 155 46.5t84 129.5h228q-31 -169 -163.5 -272t-317.5 -103q-232 0 -365 154t-133 424q0 267 134 419t370 152q229 0 360 -148.5t131 -408.5q0 -23 -3 -73q-1 -5 -1 -7zM835 643q-1 132 -68 204.5t-189 72.5q-116 0 -183 -71 t-78 -206h518z" />
<glyph unicode="f" horiz-adv-x="594" d="M592 1479v-193l-49 4q-19 2 -31 2q-62 0 -85.5 -26t-23.5 -105v-82h189v-170h-189v-909h-227v909h-166v170h166v133q0 141 68.5 210t208.5 69q37 0 132 -11z" />
<glyph unicode="g" horiz-adv-x="1231" d="M313 555q0 -183 73.5 -280t211.5 -97q142 0 212.5 91.5t70.5 275.5q0 182 -74 276t-217 94q-129 0 -203 -96t-74 -264zM877 141q-53 -78 -135 -118.5t-189 -40.5q-215 0 -344 153.5t-129 407.5q0 261 129 416t346 155q106 0 185 -41.5t139 -128.5v135h219v-1034 q0 -264 -120 -377.5t-392 -113.5q-219 0 -342 87t-125 242h235q5 -69 64 -105t168 -36q154 0 222.5 63.5t68.5 210.5v125z" />
<glyph unicode="h" horiz-adv-x="1196" d="M135 1473h230v-533q52 81 136.5 123.5t192.5 42.5q179 0 274 -87.5t95 -252.5q0 -4 1 -36.5t1 -59.5v-670h-229v666q0 128 -49.5 185.5t-157.5 57.5q-119 0 -191.5 -73.5t-72.5 -196.5v-639h-230v1473z" />
<glyph unicode="i" horiz-adv-x="500" d="M135 1079h230v-1079h-230v1079zM135 1473h230v-232h-230v232z" />
<glyph unicode="j" horiz-adv-x="508" d="M143 1079h228v-1245q0 -150 -71 -215t-232 -65h-35l-45 2v200l39 -2h24q51 0 71.5 22t20.5 93v1210zM143 1473h228v-232h-228v232z" />
<glyph unicode="k" horiz-adv-x="1094" d="M135 1473h225v-834l424 440h279l-389 -397l397 -682h-266l-291 516l-154 -156v-360h-225v1473z" />
<glyph unicode="l" horiz-adv-x="506" d="M139 1473h230v-1473h-230v1473z" />
<glyph unicode="m" horiz-adv-x="1774" d="M969 942q60 81 141 122.5t178 41.5q185 0 271 -98.5t86 -313.5v-694h-226v678q0 119 -43.5 174t-136.5 55q-112 0 -175 -69t-63 -193v-645h-227v721q0 86 -47.5 136t-130.5 50q-110 0 -173 -70t-63 -194v-643h-227v1079h217v-139q57 81 137 123.5t177 42.5 q107 0 179.5 -39t125.5 -125z" />
<glyph unicode="n" horiz-adv-x="1190" d="M1063 686v-686h-229v709q0 98 -51 150t-146 52q-130 0 -202.5 -75t-72.5 -209v-627h-229v1079h221v-145q57 83 142.5 127.5t187.5 44.5q204 0 291.5 -93.5t87.5 -326.5z" />
<glyph unicode="o" horiz-adv-x="1214" d="M608 918q-143 0 -220 -98t-77 -281t76.5 -280t220.5 -97q143 0 219 97t76 280t-76 281t-219 98zM606 1114q248 0 389.5 -153t141.5 -422t-140.5 -421.5t-388.5 -152.5q-249 0 -389.5 152t-140.5 422t140 422.5t388 152.5z" />
<glyph unicode="p" horiz-adv-x="1233" d="M360 133v-563h-221v1509h219v-151q67 98 147 142t189 44q208 0 335.5 -156t127.5 -413q0 -261 -127.5 -420.5t-333.5 -159.5q-109 0 -194 42.5t-142 125.5zM643 913q-140 0 -213.5 -97t-73.5 -284q0 -179 73 -272.5t214 -93.5q134 0 208.5 99.5t74.5 279.5q0 172 -76 270 t-207 98z" />
<glyph unicode="q" horiz-adv-x="1233" d="M309 551q0 -186 74 -286.5t211 -100.5t210 96.5t73 278.5q0 181 -75 277.5t-214 96.5q-127 0 -203 -98t-76 -264zM874 141q-55 -87 -139 -131.5t-196 -44.5q-208 0 -334.5 157t-126.5 417q0 259 126.5 417t332.5 158q110 0 193 -43.5t144 -134.5v143h222v-1509h-222v571z " />
<glyph unicode="r" horiz-adv-x="727" d="M698 1102v-236h-61q-138 0 -207.5 -69.5t-69.5 -208.5v-588h-227v1079h215v-190q47 108 122 161.5t177 53.5h6q24 -2 45 -2z" />
<glyph unicode="s" horiz-adv-x="1061" d="M958 766h-222q-6 80 -64 122t-164 42q-85 0 -134.5 -32t-49.5 -85q0 -51 40 -82.5t142 -54.5l137 -31q199 -46 272.5 -117t73.5 -202q0 -171 -123 -266t-344 -95q-219 0 -339 100.5t-120 284.5h223q10 -99 73 -147.5t184 -48.5q100 0 158.5 38.5t58.5 104.5 q0 49 -34.5 77.5t-133.5 53.5l-162 41q-184 45 -260 116t-76 193q0 155 113.5 245.5t308.5 90.5q203 0 322.5 -94.5t119.5 -253.5z" />
<glyph unicode="t" horiz-adv-x="608" d="M162 1376h227v-297h180v-170h-180v-635q0 -59 19 -78.5t71 -19.5q9 0 23.5 1t21.5 1l45 2v-182q-8 -1 -23 -2q-98 -10 -138 -10q-135 0 -190.5 57t-55.5 203v663h-154v170h154v297z" />
<glyph unicode="u" horiz-adv-x="1190" d="M129 1079h229v-659q0 -139 45.5 -194.5t151.5 -55.5q133 0 203.5 78t70.5 225v606h228v-1079h-219v147q-54 -83 -141.5 -128.5t-192.5 -45.5q-112 0 -192 33.5t-128 99.5q-30 43 -42.5 100.5t-12.5 186.5v686z" />
<glyph unicode="v" horiz-adv-x="1030" d="M0 1079h250l268 -825l264 825h242l-389 -1079h-238z" />
<glyph unicode="w" horiz-adv-x="1524" d="M14 1079h236l205 -790l184 790h248l186 -790l209 790h227l-317 -1079h-227l-205 805l-201 -805h-229z" />
<glyph unicode="x" horiz-adv-x="1014" d="M14 1079h265l231 -360l227 360h258l-352 -522l375 -557h-270l-248 383l-238 -383h-262l369 553z" />
<glyph unicode="y" horiz-adv-x="1065" d="M16 1079h252l269 -831l266 831h246l-449 -1257q-57 -160 -128.5 -214t-211.5 -54q-35 0 -60 2.5t-46 9.5v200q24 -5 45.5 -7.5t40.5 -2.5q64 0 98 22.5t53 76.5l31 90z" />
<glyph unicode="z" horiz-adv-x="1008" d="M78 1079h866v-186l-610 -696h635v-197h-924v180l617 709h-584v190z" />
<glyph unicode="{" horiz-adv-x="1024" d="M874 1477v-179q-8 0 -24 1t-23 1q-109 0 -147.5 -41.5t-38.5 -173.5v-241q0 -155 -44 -220.5t-159 -93.5q114 -27 158.5 -92.5t44.5 -220.5v-240q0 -132 39.5 -174.5t148.5 -42.5q7 0 22 1t23 1v-176h-63q-102 0 -165.5 12t-106.5 37q-57 34 -80 96t-23 203v248 q0 144 -52.5 203t-178.5 59q-7 0 -21.5 -1t-21.5 -1v179q7 0 21.5 -1.5t21.5 -1.5q126 0 178.5 59t52.5 202v247q0 145 23 206.5t80 94.5q44 27 109 38.5t181 11.5h45z" />
<glyph unicode="|" horiz-adv-x="1024" d="M424 1565h178v-2048h-178v2048z" />
<glyph unicode="}" horiz-adv-x="1024" d="M152 1477h45q115 0 179.5 -11.5t108.5 -38.5q57 -33 80 -95t23 -206v-247q0 -144 52 -202.5t179 -58.5q6 0 21 1.5t22 1.5v-179q-7 0 -21.5 1t-21.5 1q-126 0 -178.5 -59t-52.5 -203v-248q0 -143 -23 -204t-80 -95q-43 -26 -108 -37.5t-180 -11.5h-45v176q8 0 23 -1 t22 -1q109 0 147.5 42t38.5 175v240q0 153 45 219t160 94q-115 28 -160 93.5t-45 220.5v241q0 132 -38 173.5t-146 41.5q-7 0 -23 -1t-24 -1v179z" />
<glyph unicode="~" horiz-adv-x="1706" d="M1530 784v-184q-103 -71 -197.5 -106t-183.5 -35q-44 0 -92.5 8.5t-98.5 26.5q-25 8 -76 26q-212 74 -319 74q-82 0 -174 -38t-211 -122v187q106 72 202 107.5t185 35.5q62 0 125.5 -12t168.5 -48q13 -4 42 -15q164 -58 250 -58q85 0 177 37t202 116z" />
<glyph d="M-10 528l33 101h131q0 11 -1 32.5t-1 32.5q0 15 1 41.5t1 38.5h-154l35 100h125q30 274 156.5 416t340.5 142q202 0 324.5 -114.5t140.5 -320.5l-233 1q-5 110 -66.5 172.5t-169.5 62.5q-116 0 -178 -86.5t-78 -272.5h486l-35 -100h-455q0 -11 -1 -33.5t-1 -33.5 q0 -14 1 -40t1 -38h408l-35 -101h-369q15 -187 77.5 -277.5t176.5 -90.5q104 0 164.5 67t75.5 199h231q-28 -230 -151 -348.5t-332 -118.5t-333 147t-146 422h-170z" />
<glyph unicode="&#x20ac;" d="M-10 528l33 101h131q0 11 -1 32.5t-1 32.5q0 15 1 41.5t1 38.5h-154l35 100h125q30 274 156.5 416t340.5 142q202 0 324.5 -114.5t140.5 -320.5l-233 1q-5 110 -66.5 172.5t-169.5 62.5q-116 0 -178 -86.5t-78 -272.5h486l-35 -100h-455q0 -11 -1 -33.5t-1 -33.5 q0 -14 1 -40t1 -38h408l-35 -101h-369q15 -187 77.5 -277.5t176.5 -90.5q104 0 164.5 67t75.5 199h231q-28 -230 -151 -348.5t-332 -118.5t-333 147t-146 422h-170z" />
<glyph unicode="&#xa0;" />
<glyph unicode="&#xa1;" horiz-adv-x="666" d="M270 1094h125l60 -652v-442h-246v442zM211 1473h244v-254h-244v254z" />
<glyph unicode="&#xa2;" d="M618 915q-4 1 -11 1q-37 4 -50 4q-115 0 -181.5 -100t-66.5 -273q0 -124 25.5 -202t83.5 -134zM717 1282h102l-57 -201q121 -45 185 -136.5t75 -233.5h-223q-5 59 -28 100t-69 72l-200 -713q21 -3 36.5 -4.5t26.5 -1.5q94 0 157.5 62t78.5 169h223q-10 -187 -138 -308.5 t-311 -121.5q-28 0 -59.5 2.5t-66.5 7.5l-60 -213h-100l67 244q-137 63 -208.5 198.5t-71.5 332.5q0 263 133.5 420t355.5 157q19 0 40.5 -1.5t63.5 -6.5z" />
<glyph unicode="&#xa3;" d="M1055 985h-223q-2 135 -68.5 205t-192.5 70q-102 0 -167.5 -64t-65.5 -162q0 -71 76 -226q19 -38 28 -58h306v-107h-260q9 -40 13.5 -67.5t4.5 -40.5q0 -92 -45.5 -175t-155.5 -186q59 29 113 42t110 13q62 0 162 -29.5t141 -29.5q40 0 80.5 13.5t94.5 45.5l86 -168 q-67 -50 -135 -75t-136 -25q-79 0 -206.5 43t-192.5 43q-72 0 -133 -21t-117 -65l-106 174q121 92 178 174.5t57 167.5q0 41 -10.5 81.5t-32.5 84.5h-199v107h138q-54 99 -75.5 165.5t-21.5 126.5q0 180 134.5 294t353.5 114q210 0 338.5 -123t128.5 -326v-16z" />
<glyph unicode="&#xa4;" d="M-10 528l33 101h131q0 11 -1 32.5t-1 32.5q0 15 1 41.5t1 38.5h-154l35 100h125q30 274 156.5 416t340.5 142q202 0 324.5 -114.5t140.5 -320.5l-233 1q-5 110 -66.5 172.5t-169.5 62.5q-116 0 -178 -86.5t-78 -272.5h486l-35 -100h-455q0 -11 -1 -33.5t-1 -33.5 q0 -14 1 -40t1 -38h408l-35 -101h-369q15 -187 77.5 -277.5t176.5 -90.5q104 0 164.5 67t75.5 199h231q-28 -230 -151 -348.5t-332 -118.5t-333 147t-146 422h-170z" />
<glyph unicode="&#xa5;" horiz-adv-x="1233" d="M0 1391h270l359 -646l348 646h250l-289 -504h279v-101h-336l-76 -127h412v-100h-465l-9 -31v-528h-229v528l-10 31h-488v100h428l-79 127h-349v101h289z" />
<glyph unicode="&#xa6;" horiz-adv-x="1024" d="M424 408h178v-758h-178v758zM424 1432h178v-758h-178v758z" />
<glyph unicode="&#xa7;" horiz-adv-x="1024" d="M360 895q-47 -26 -70.5 -60t-23.5 -77q0 -47 33 -84t137 -94l223 -121q43 24 68 62t25 77q0 47 -31 83t-123 87zM864 1178h-198q-5 79 -48.5 119t-125.5 40q-60 0 -98 -32t-38 -82q0 -47 39 -89t123 -85l215 -109q115 -59 168 -131.5t53 -169.5q0 -91 -48.5 -165 t-131.5 -107q55 -49 82 -106.5t27 -125.5q0 -146 -106 -240t-275 -94q-168 0 -267.5 93.5t-99.5 252.5h205q2 -80 48.5 -123.5t129.5 -43.5q73 0 115.5 35t42.5 96q0 52 -38.5 93t-150.5 101l-206 109q-108 56 -159.5 128t-51.5 163q0 87 43.5 156.5t130.5 121.5 q-48 40 -71 91t-23 116q0 143 97 232t255 89q169 0 265.5 -88t96.5 -241v-4z" />
<glyph unicode="&#xa8;" horiz-adv-x="1024" d="M582 1499h200v-225h-200v225zM244 1499h200v-225h-200v225z" />
<glyph unicode="&#xa9;" horiz-adv-x="1706" d="M1206 903h-166q-10 74 -60 114t-130 40q-99 0 -155 -86.5t-56 -239.5q0 -152 57.5 -234.5t163.5 -82.5q80 0 129 43.5t60 124.5h165q-7 -135 -106.5 -217t-253.5 -82q-183 0 -290 119t-107 323q0 208 109.5 331.5t291.5 123.5q147 0 243 -77t105 -200zM854 1362 q-130 0 -243 -46.5t-201 -135.5q-90 -92 -138.5 -208t-48.5 -241q0 -126 48 -240t139 -204q90 -91 204.5 -139t239.5 -48t240 48.5t209 140.5q89 88 135.5 200.5t46.5 241.5t-47 243.5t-135 203.5q-91 90 -205 137t-244 47zM852 1470q152 0 286 -55t240 -162 q105 -105 160 -238.5t55 -283.5q0 -153 -54.5 -286t-158.5 -234q-108 -107 -244.5 -164t-283.5 -57q-146 0 -280 56.5t-240 162.5q-107 106 -163 240.5t-56 281.5q0 145 57 280.5t164 243.5q105 107 235.5 161t282.5 54z" />
<glyph unicode="&#xaa;" horiz-adv-x="846" d="M575 1096q-54 -26 -169 -42l-63 -9q-60 -11 -90 -40t-30 -75q0 -52 34.5 -80.5t96.5 -28.5q96 0 158.5 51t62.5 129v95zM584 817q-50 -60 -119.5 -92.5t-149.5 -32.5q-122 0 -192 59.5t-70 163.5q0 116 75 174t269 80q10 2 25 4q156 19 156 87q0 53 -40.5 78.5 t-125.5 25.5q-79 0 -120.5 -30.5t-41.5 -88.5v-4h-164v12q0 113 89 178.5t243 65.5q161 0 243 -56.5t82 -166.5v-375q0 -43 11 -56.5t39 -13.5q13 0 20 0.5t14 1.5v-116q-23 -6 -44.5 -9.5t-43.5 -3.5q-78 0 -115.5 28t-39.5 87z" />
<glyph unicode="&#xab;" horiz-adv-x="913" d="M823 918v-203l-209 -172l209 -172v-203l-327 262v223zM406 918v-203l-211 -172l211 -172v-203l-330 262v223z" />
<glyph unicode="&#xac;" horiz-adv-x="1706" d="M254 862h1198v-502h-166v336h-1032v166z" />
<glyph unicode="&#xad;" horiz-adv-x="659" d="M68 649h524v-211h-524v211z" />
<glyph unicode="&#xae;" horiz-adv-x="1706" d="M729 1047v-261h117q100 0 146 30.5t46 96.5q0 69 -48 101.5t-152 32.5h-109zM551 1159h319q173 0 262 -57t89 -168q0 -91 -48 -150.5t-137 -78.5l185 -375h-199l-164 346h-129v-346h-178v829zM854 1362q-129 0 -240 -45.5t-200 -134.5q-92 -94 -141.5 -210t-49.5 -241 t47 -238.5t136 -203.5q90 -91 204 -140t234 -49q130 0 246.5 47t209.5 138q89 86 137 198.5t48 237.5q0 133 -45.5 247.5t-134.5 205.5q-93 92 -207.5 140t-243.5 48zM852 1470q153 0 288.5 -56t241.5 -165q103 -104 157 -236.5t54 -281.5q0 -153 -55.5 -287t-161.5 -237 q-108 -105 -243 -161t-281 -56q-147 0 -282.5 57.5t-241.5 165.5q-105 106 -160 239t-55 279q0 147 57.5 284t165.5 245q104 104 234.5 157t281.5 53z" />
<glyph unicode="&#xaf;" horiz-adv-x="1024" d="M236 1460h552v-145h-552v145z" />
<glyph unicode="&#xb0;" horiz-adv-x="674" d="M338 1350q-77 0 -131.5 -54t-54.5 -131q0 -76 54.5 -131t131.5 -55t130.5 54.5t53.5 131.5t-53.5 131t-130.5 54zM338 1460q121 0 208 -87t87 -210q0 -121 -87 -208t-210 -87t-208 85.5t-85 209.5q0 125 86 211t209 86z" />
<glyph unicode="&#xb1;" horiz-adv-x="1706" d="M254 182h1198v-168h-1198v168zM768 1206h170v-334h514v-165h-514v-334h-170v334h-514v165h514v334z" />
<glyph unicode="&#xb2;" horiz-adv-x="754" d="M215 682h475v-125h-653v4q0 117 57 199t195 158l55 29q191 103 191 208q0 62 -45.5 101.5t-116.5 39.5q-80 0 -126 -47t-46 -129v-12h-146v6q0 142 86 221.5t238 79.5q142 0 227.5 -71t85.5 -189q0 -85 -52 -152t-167 -129l-19 -10q-212 -110 -239 -182z" />
<glyph unicode="&#xb3;" horiz-adv-x="754" d="M549 1014q71 -23 110 -77.5t39 -129.5q0 -127 -93 -201t-253 -74q-146 0 -231.5 77t-85.5 208v6h147q0 -81 45.5 -125.5t128.5 -44.5q86 0 134.5 39t48.5 109t-47.5 107.5t-135.5 37.5q-25 0 -37.5 -0.5t-21.5 -0.5v107h14h23q90 0 132 30.5t42 97.5q0 55 -40 87.5 t-108 32.5q-76 0 -117.5 -40.5t-41.5 -114.5v-8h-148v6q0 126 83 199t224 73q142 0 224 -61t82 -166q0 -62 -29.5 -106t-87.5 -68z" />
<glyph unicode="&#xb4;" horiz-adv-x="1024" d="M561 1575h227l-299 -358h-129z" />
<glyph unicode="&#xb5;" horiz-adv-x="1208" d="M205 1081h229l-125 -635q-6 -29 -9 -55t-3 -49q0 -96 46.5 -146.5t135.5 -50.5q122 0 193.5 88.5t111.5 292.5l109 555h225l-145 -739q-10 -49 -14.5 -81.5t-4.5 -51.5q0 -36 15.5 -51t52.5 -15q13 0 20.5 0.5t13.5 1.5l-32 -159q-32 -9 -68.5 -13t-81.5 -4 q-74 0 -111.5 31.5t-37.5 93.5v15q-41 -67 -108 -104.5t-146 -37.5q-81 0 -137.5 26t-97.5 83l-99 -506h-229z" />
<glyph unicode="&#xb6;" horiz-adv-x="1024" d="M969 1479v-99h-117v-1380h-129v1380h-168v-1380h-131v784q-168 6 -268.5 101t-100.5 245q0 158 107 253.5t284 95.5h523z" />
<glyph unicode="&#xb7;" horiz-adv-x="569" d="M285 840q57 0 97 -40t40 -98q0 -56 -40 -96.5t-97 -40.5t-97.5 40.5t-40.5 96.5q0 57 41 97.5t97 40.5z" />
<glyph unicode="&#xb8;" horiz-adv-x="1024" d="M461 -10h86v-92h20q110 0 167 -44t57 -128q0 -94 -62 -140.5t-188 -46.5q-50 0 -115 10.5t-139 30.5l-2 107q76 -18 140 -27.5t110 -9.5q53 0 78.5 18.5t25.5 57.5q0 35 -29.5 53t-87.5 18q-25 0 -38 -0.5t-23 -0.5v194z" />
<glyph unicode="&#xb9;" horiz-adv-x="752" d="M375 1415h117v-858h-152v600h-221v98q125 0 183.5 37t72.5 123z" />
<glyph unicode="&#xba;" horiz-adv-x="911" d="M457 1360q-108 0 -166 -69t-58 -197t57.5 -196.5t166.5 -68.5q107 0 164 68.5t57 196.5q0 129 -57 197.5t-164 68.5zM455 1497q186 0 291.5 -107t105.5 -296q0 -188 -105 -295t-290 -107q-188 0 -293 106.5t-105 295.5q0 190 105 296.5t291 106.5z" />
<glyph unicode="&#xbb;" horiz-adv-x="913" d="M506 915l328 -262v-223l-328 -262v203l211 172l-211 170v202zM86 915l330 -262v-223l-330 -262v203l211 172l-211 170v202z" />
<glyph unicode="&#xbc;" horiz-adv-x="1780" d="M1481 643l-267 -350h267v350zM1458 778h162v-485h119v-107h-119v-186h-141v186h-387v119zM1264 1440h139l-887 -1481h-141zM358 1413h113v-801h-145v559h-211v95q120 0 175.5 34t67.5 113z" />
<glyph unicode="&#xbd;" horiz-adv-x="1780" d="M1266 117h452v-117h-620v4q0 109 54 185.5t185 148.5l52 28q182 95 182 191q0 58 -43.5 95.5t-112.5 37.5q-75 0 -118.5 -44t-43.5 -120v-12h-139v6q0 133 82 207t227 74q135 0 217 -66.5t82 -175.5q0 -80 -49.5 -142.5t-159.5 -119.5q-11 -6 -31 -16q-192 -99 -216 -164 zM1264 1440h139l-887 -1481h-141zM358 1413h113v-801h-145v559h-211v95q120 0 175.5 34t67.5 113z" />
<glyph unicode="&#xbe;" horiz-adv-x="1780" d="M1481 643l-267 -350h267v350zM1458 778h162v-485h119v-107h-119v-186h-141v186h-387v119zM1264 1440h139l-887 -1481h-141zM524 1038q68 -21 106 -71.5t38 -120.5q0 -117 -90 -186.5t-242 -69.5q-140 0 -221.5 71.5t-81.5 192.5v6h141q0 -75 43.5 -116.5t122.5 -41.5 q82 0 128 36.5t46 101.5t-45 100t-129 35q-24 0 -35 -0.5t-20 -1.5v100h12h22q87 0 125.5 28.5t38.5 90.5q0 53 -37.5 84t-101.5 31q-73 0 -113.5 -38t-40.5 -108v-8h-139v6q0 116 79.5 185t213.5 69q135 0 213 -57.5t78 -155.5q0 -57 -28 -98t-83 -64z" />
<glyph unicode="&#xbf;" horiz-adv-x="1106" d="M463 1063h217q0 -16 1 -34t1 -19q0 -106 -30 -179.5t-109 -152.5q-18 -18 -54 -50q-145 -132 -145 -253q0 -97 61 -155t162 -58q113 0 175 73t67 213l223 1v-25q0 -217 -125.5 -340t-347.5 -123q-207 0 -332 112t-125 298q0 192 219 387l32 29q65 58 88.5 108t23.5 125 q0 6 -1 20t-1 23zM449 1473h241v-252h-241v252z" />
<glyph unicode="&#xc0;" horiz-adv-x="1348" d="M672 1225l-219 -639h438zM535 1473h276l541 -1473h-262l-132 381h-573l-129 -381h-256zM402 1972h225l201 -358h-129z" />
<glyph unicode="&#xc1;" horiz-adv-x="1348" d="M672 1225l-219 -639h438zM535 1473h276l541 -1473h-262l-132 381h-573l-129 -381h-256zM725 1972h227l-299 -358h-129z" />
<glyph unicode="&#xc2;" horiz-adv-x="1348" d="M672 1225l-219 -639h438zM535 1473h276l541 -1473h-262l-132 381h-573l-129 -381h-256zM570 1972h212l197 -358h-129l-174 223l-174 -223h-129z" />
<glyph unicode="&#xc3;" horiz-adv-x="1348" d="M672 1225l-219 -639h438zM535 1473h276l541 -1473h-262l-132 381h-573l-129 -381h-256zM881 1910h98q-23 -111 -73 -167t-128 -56q-13 0 -31.5 3t-38.5 8l-91 26q-14 4 -26.5 6t-27.5 2q-36 0 -57 -16t-35 -55h-98q21 108 70 162.5t127 54.5q19 0 37.5 -2.5t36.5 -8.5 l91 -26q13 -4 26 -6t28 -2q35 0 57 18.5t35 58.5z" />
<glyph unicode="&#xc4;" horiz-adv-x="1348" d="M672 1225l-219 -639h438zM535 1473h276l541 -1473h-262l-132 381h-573l-129 -381h-256zM746 1896h200v-225h-200v225zM408 1896h200v-225h-200v225z" />
<glyph unicode="&#xc5;" horiz-adv-x="1348" d="M672 1225l-215 -639h434zM526 1446h293l533 -1446h-262l-129 381h-572l-127 -381h-262zM674 1847q-47 0 -80 -33.5t-33 -80.5q0 -48 32.5 -80.5t80.5 -32.5q47 0 79.5 33t32.5 80q0 46 -33 80t-79 34zM674 1972q100 0 169.5 -70t69.5 -169q0 -100 -69.5 -169t-169.5 -69 q-101 0 -170.5 69t-69.5 169q0 99 70 169t170 70z" />
<glyph unicode="&#xc6;" horiz-adv-x="1991" d="M721 1268l-260 -686h416v686h-156zM573 1473h1311v-216h-770v-385h703v-206h-703v-445h791v-221h-1028v381h-492l-143 -381h-267z" />
<glyph unicode="&#xc7;" horiz-adv-x="1487" d="M1399 1012h-242q-20 133 -117.5 206.5t-255.5 73.5q-211 0 -326.5 -143t-115.5 -404q0 -263 117 -414t321 -151q162 0 267.5 95.5t117.5 252.5h240q-9 -250 -186.5 -409.5t-448.5 -159.5q-315 0 -496.5 207t-181.5 569q0 366 184 571t512 205q266 0 428.5 -133 t182.5 -366zM723 -10h86v-92h20q110 0 167 -44t57 -128q0 -94 -62 -140.5t-188 -46.5q-50 0 -115 10.5t-139 30.5l-2 107q76 -18 140 -27.5t110 -9.5q53 0 78.5 18.5t25.5 57.5q0 35 -29.5 53t-87.5 18q-25 0 -38 -0.5t-23 -0.5v194z" />
<glyph unicode="&#xc8;" horiz-adv-x="1321" d="M156 1473h1056v-216h-815v-385h752v-206h-752v-445h842v-221h-1083v1473zM410 1972h225l201 -358h-129z" />
<glyph unicode="&#xc9;" horiz-adv-x="1321" d="M156 1473h1056v-216h-815v-385h752v-206h-752v-445h842v-221h-1083v1473zM733 1972h227l-299 -358h-129z" />
<glyph unicode="&#xca;" horiz-adv-x="1321" d="M156 1473h1056v-216h-815v-385h752v-206h-752v-445h842v-221h-1083v1473zM578 1972h212l197 -358h-129l-174 223l-174 -223h-129z" />
<glyph unicode="&#xcb;" horiz-adv-x="1321" d="M156 1473h1056v-216h-815v-385h752v-206h-752v-445h842v-221h-1083v1473zM754 1896h200v-225h-200v225zM416 1896h200v-225h-200v225z" />
<glyph unicode="&#xcc;" horiz-adv-x="571" d="M162 1473h246v-1473h-246v1473zM13 1972h225l201 -358h-129z" />
<glyph unicode="&#xcd;" horiz-adv-x="571" d="M162 1473h246v-1473h-246v1473zM336 1972h227l-299 -358h-129z" />
<glyph unicode="&#xce;" horiz-adv-x="571" d="M162 1473h246v-1473h-246v1473zM181 1972h212l197 -358h-129l-174 223l-174 -223h-129z" />
<glyph unicode="&#xcf;" horiz-adv-x="571" d="M162 1473h246v-1473h-246v1473zM357 1896h200v-225h-200v225zM19 1896h200v-225h-200v225z" />
<glyph unicode="&#xd0;" horiz-adv-x="1475" d="M406 1264v-400h362v-155h-362v-492h301q217 0 321.5 131t104.5 406q0 250 -104.5 380t-305.5 130h-317zM164 1473h569q324 0 486.5 -183.5t162.5 -548.5q0 -359 -178 -550t-512 -191h-528v709h-164v155h164v609z" />
<glyph unicode="&#xd1;" horiz-adv-x="1495" d="M156 1473h260l686 -1102v1102h237v-1473h-258l-690 1102v-1102h-235v1473zM953 1910h98q-23 -111 -73 -167t-128 -56q-13 0 -31.5 3t-38.5 8l-91 26q-14 4 -26.5 6t-27.5 2q-36 0 -57 -16t-35 -55h-98q21 108 70 162.5t127 54.5q19 0 37.5 -2.5t36.5 -8.5l91 -26 q13 -4 26 -6t28 -2q35 0 57 18.5t35 58.5z" />
<glyph unicode="&#xd2;" horiz-adv-x="1597" d="M799 1298q-215 0 -336 -148.5t-121 -414.5q0 -265 121 -414t336 -149q214 0 335 149t121 414q0 266 -120.5 414.5t-335.5 148.5zM799 1511q328 0 517 -207.5t189 -568.5t-189 -568.5t-517 -207.5q-329 0 -518 207t-189 569t189 569t518 207zM525 1972h225l201 -358h-129z " />
<glyph unicode="&#xd3;" horiz-adv-x="1597" d="M799 1298q-215 0 -336 -148.5t-121 -414.5q0 -265 121 -414t336 -149q214 0 335 149t121 414q0 266 -120.5 414.5t-335.5 148.5zM799 1511q328 0 517 -207.5t189 -568.5t-189 -568.5t-517 -207.5q-329 0 -518 207t-189 569t189 569t518 207zM848 1972h227l-299 -358h-129 z" />
<glyph unicode="&#xd4;" horiz-adv-x="1597" d="M799 1298q-215 0 -336 -148.5t-121 -414.5q0 -265 121 -414t336 -149q214 0 335 149t121 414q0 266 -120.5 414.5t-335.5 148.5zM799 1511q328 0 517 -207.5t189 -568.5t-189 -568.5t-517 -207.5q-329 0 -518 207t-189 569t189 569t518 207zM693 1972h212l197 -358h-129 l-174 223l-174 -223h-129z" />
<glyph unicode="&#xd5;" horiz-adv-x="1597" d="M799 1298q-215 0 -336 -148.5t-121 -414.5q0 -265 121 -414t336 -149q214 0 335 149t121 414q0 266 -120.5 414.5t-335.5 148.5zM799 1511q328 0 517 -207.5t189 -568.5t-189 -568.5t-517 -207.5q-329 0 -518 207t-189 569t189 569t518 207zM1004 1910h98 q-23 -111 -73 -167t-128 -56q-13 0 -31.5 3t-38.5 8l-91 26q-14 4 -26.5 6t-27.5 2q-36 0 -57 -16t-35 -55h-98q21 108 70 162.5t127 54.5q19 0 37.5 -2.5t36.5 -8.5l91 -26q13 -4 26 -6t28 -2q35 0 57 18.5t35 58.5z" />
<glyph unicode="&#xd6;" horiz-adv-x="1597" d="M799 1298q-215 0 -336 -148.5t-121 -414.5q0 -265 121 -414t336 -149q214 0 335 149t121 414q0 266 -120.5 414.5t-335.5 148.5zM799 1511q328 0 517 -207.5t189 -568.5t-189 -568.5t-517 -207.5q-329 0 -518 207t-189 569t189 569t518 207zM869 1896h200v-225h-200v225z M531 1896h200v-225h-200v225z" />
<glyph unicode="&#xd7;" horiz-adv-x="1706" d="M403 1188l459 -459l461 459l117 -117l-459 -461l459 -458l-117 -119l-461 461l-459 -461l-116 119l458 458l-458 461z" />
<glyph unicode="&#xd8;" horiz-adv-x="1597" d="M473 309q65 -69 145.5 -103t180.5 -34q214 0 335 149t121 414q0 106 -19.5 196t-57.5 159zM416 395l700 779q-63 64 -139.5 94t-177.5 30q-215 0 -336 -148.5t-121 -414.5q0 -105 18 -188.5t56 -151.5zM244 215q-76 99 -114 229.5t-38 290.5q0 362 189 569t518 207 q144 0 261 -39.5t210 -119.5l149 168l82 -76l-155 -174q80 -102 119.5 -234.5t39.5 -300.5q0 -361 -189 -568.5t-517 -207.5q-149 0 -269 43t-213 129l-161 -182l-84 76z" />
<glyph unicode="&#xd9;" horiz-adv-x="1460" d="M147 1473h246v-916q0 -191 82 -282t254 -91q173 0 255.5 91.5t82.5 281.5v916h246v-930q0 -280 -152 -432t-432 -152q-287 0 -434.5 147.5t-147.5 436.5v930zM457 1972h225l201 -358h-129z" />
<glyph unicode="&#xda;" horiz-adv-x="1460" d="M147 1473h246v-916q0 -191 82 -282t254 -91q173 0 255.5 91.5t82.5 281.5v916h246v-930q0 -280 -152 -432t-432 -152q-287 0 -434.5 147.5t-147.5 436.5v930zM780 1972h227l-299 -358h-129z" />
<glyph unicode="&#xdb;" horiz-adv-x="1460" d="M147 1473h246v-916q0 -191 82 -282t254 -91q173 0 255.5 91.5t82.5 281.5v916h246v-930q0 -280 -152 -432t-432 -152q-287 0 -434.5 147.5t-147.5 436.5v930zM625 1972h212l197 -358h-129l-174 223l-174 -223h-129z" />
<glyph unicode="&#xdc;" horiz-adv-x="1460" d="M147 1473h246v-916q0 -191 82 -282t254 -91q173 0 255.5 91.5t82.5 281.5v916h246v-930q0 -280 -152 -432t-432 -152q-287 0 -434.5 147.5t-147.5 436.5v930zM801 1896h200v-225h-200v225zM463 1896h200v-225h-200v225z" />
<glyph unicode="&#xdd;" horiz-adv-x="1251" d="M-23 1473h304l360 -670l348 670h283l-506 -891v-582h-246v571zM676 1972h227l-299 -358h-129z" />
<glyph unicode="&#xde;" horiz-adv-x="1315" d="M399 1006v-426h318q148 0 212 49.5t64 161.5q0 110 -63 162.5t-199 52.5h-332zM156 1473h243v-263h314q268 0 393 -100.5t125 -316.5q0 -210 -125 -314t-377 -104h-332v-375h-241v1473z" />
<glyph unicode="&#xdf;" horiz-adv-x="1159" d="M850 823q112 -40 171.5 -134t59.5 -230q0 -217 -127.5 -355.5t-324.5 -138.5q-28 0 -60 3t-67 9v197q20 -4 40 -6t40 -2q120 0 192 77.5t72 209.5q0 128 -76 194t-223 66h-33v172q6 0 18 -1t17 -1q111 0 170 54t59 155q0 96 -56 151t-155 55q-105 0 -158 -66t-53 -196 v-1036h-223v1075q0 191 119 302.5t321 111.5q201 0 317 -101.5t116 -277.5q0 -106 -39.5 -178.5t-116.5 -108.5z" />
<glyph unicode="&#xe0;" horiz-adv-x="1128" d="M768 541q-72 -37 -229 -60q-57 -9 -84 -14q-80 -15 -119 -55.5t-39 -106.5q0 -74 46 -114.5t130 -40.5q127 0 211 72t84 184v135zM778 143q-66 -85 -159 -131.5t-199 -46.5q-163 0 -255.5 85t-92.5 235q0 164 99 246.5t359 115.5l23 3q217 28 217 124q0 78 -54 115 t-167 37q-105 0 -161 -44t-56 -126v-8h-217v18q0 161 118.5 254.5t323.5 93.5q215 0 324.5 -80.5t109.5 -238.5v-535q0 -62 14.5 -81t51.5 -19q7 0 15.5 0.5t29.5 2.5v-167q-31 -8 -60.5 -12t-56.5 -4q-104 0 -154.5 40t-52.5 123zM291 1575h225l201 -358h-129z" />
<glyph unicode="&#xe1;" horiz-adv-x="1128" d="M768 541q-72 -37 -229 -60q-57 -9 -84 -14q-80 -15 -119 -55.5t-39 -106.5q0 -74 46 -114.5t130 -40.5q127 0 211 72t84 184v135zM778 143q-66 -85 -159 -131.5t-199 -46.5q-163 0 -255.5 85t-92.5 235q0 164 99 246.5t359 115.5l23 3q217 28 217 124q0 78 -54 115 t-167 37q-105 0 -161 -44t-56 -126v-8h-217v18q0 161 118.5 254.5t323.5 93.5q215 0 324.5 -80.5t109.5 -238.5v-535q0 -62 14.5 -81t51.5 -19q7 0 15.5 0.5t29.5 2.5v-167q-31 -8 -60.5 -12t-56.5 -4q-104 0 -154.5 40t-52.5 123zM614 1575h227l-299 -358h-129z" />
<glyph unicode="&#xe2;" horiz-adv-x="1128" d="M768 541q-72 -37 -229 -60q-57 -9 -84 -14q-80 -15 -119 -55.5t-39 -106.5q0 -74 46 -114.5t130 -40.5q127 0 211 72t84 184v135zM778 143q-66 -85 -159 -131.5t-199 -46.5q-163 0 -255.5 85t-92.5 235q0 164 99 246.5t359 115.5l23 3q217 28 217 124q0 78 -54 115 t-167 37q-105 0 -161 -44t-56 -126v-8h-217v18q0 161 118.5 254.5t323.5 93.5q215 0 324.5 -80.5t109.5 -238.5v-535q0 -62 14.5 -81t51.5 -19q7 0 15.5 0.5t29.5 2.5v-167q-31 -8 -60.5 -12t-56.5 -4q-104 0 -154.5 40t-52.5 123zM459 1575h212l197 -358h-129l-174 223 l-174 -223h-129z" />
<glyph unicode="&#xe3;" horiz-adv-x="1128" d="M768 541q-72 -37 -229 -60q-57 -9 -84 -14q-80 -15 -119 -55.5t-39 -106.5q0 -74 46 -114.5t130 -40.5q127 0 211 72t84 184v135zM778 143q-66 -85 -159 -131.5t-199 -46.5q-163 0 -255.5 85t-92.5 235q0 164 99 246.5t359 115.5l23 3q217 28 217 124q0 78 -54 115 t-167 37q-105 0 -161 -44t-56 -126v-8h-217v18q0 161 118.5 254.5t323.5 93.5q215 0 324.5 -80.5t109.5 -238.5v-535q0 -62 14.5 -81t51.5 -19q7 0 15.5 0.5t29.5 2.5v-167q-31 -8 -60.5 -12t-56.5 -4q-104 0 -154.5 40t-52.5 123zM770 1513h98q-23 -111 -73 -167t-128 -56 q-13 0 -31.5 3t-38.5 8l-91 26q-14 4 -26.5 6t-27.5 2q-36 0 -57 -16t-35 -55h-98q21 108 70 162.5t127 54.5q19 0 37.5 -2.5t36.5 -8.5l91 -26q13 -4 26 -6t28 -2q35 0 57 18.5t35 58.5z" />
<glyph unicode="&#xe4;" horiz-adv-x="1128" d="M768 541q-72 -37 -229 -60q-57 -9 -84 -14q-80 -15 -119 -55.5t-39 -106.5q0 -74 46 -114.5t130 -40.5q127 0 211 72t84 184v135zM778 143q-66 -85 -159 -131.5t-199 -46.5q-163 0 -255.5 85t-92.5 235q0 164 99 246.5t359 115.5l23 3q217 28 217 124q0 78 -54 115 t-167 37q-105 0 -161 -44t-56 -126v-8h-217v18q0 161 118.5 254.5t323.5 93.5q215 0 324.5 -80.5t109.5 -238.5v-535q0 -62 14.5 -81t51.5 -19q7 0 15.5 0.5t29.5 2.5v-167q-31 -8 -60.5 -12t-56.5 -4q-104 0 -154.5 40t-52.5 123zM635 1499h200v-225h-200v225zM297 1499 h200v-225h-200v225z" />
<glyph unicode="&#xe5;" horiz-adv-x="1128" d="M567 1561q-46 0 -79 -33t-33 -80q0 -48 32.5 -80.5t79.5 -32.5q48 0 81.5 33.5t33.5 79.5t-34 79.5t-81 33.5zM567 1686q101 0 170.5 -69.5t69.5 -168.5q0 -100 -70 -170t-170 -70t-168.5 69.5t-68.5 170.5q0 100 68.5 169t168.5 69zM768 541q-72 -37 -229 -60 q-57 -9 -84 -14q-80 -15 -119 -55.5t-39 -106.5q0 -74 46 -114.5t130 -40.5q127 0 211 72t84 184v135zM778 143q-66 -85 -159 -131.5t-199 -46.5q-163 0 -255.5 85t-92.5 235q0 164 99 246.5t359 115.5l23 3q217 28 217 124q0 78 -54 115t-167 37q-105 0 -161 -44t-56 -126 v-8h-217v18q0 161 118.5 254.5t323.5 93.5q215 0 324.5 -80.5t109.5 -238.5v-535q0 -62 14.5 -81t51.5 -19q7 0 15.5 0.5t29.5 2.5v-167q-31 -8 -60.5 -12t-56.5 -4q-104 0 -154.5 40t-52.5 123z" />
<glyph unicode="&#xe6;" horiz-adv-x="1808" d="M762 535q-81 -33 -187 -50t-118 -20q-82 -23 -118 -61t-36 -101q0 -74 46.5 -113.5t133.5 -39.5q116 0 197.5 69t81.5 164v152zM1497 643q0 135 -67 208t-191 73q-119 0 -188.5 -74t-75.5 -207h522zM918 977q61 68 143 102.5t184 34.5q230 0 361 -149.5t131 -415.5 q0 -29 -0.5 -43.5t-2.5 -28.5h-759q3 -156 71.5 -236.5t198.5 -80.5q98 0 162.5 46.5t87.5 133.5h227q-32 -174 -163 -274.5t-324 -100.5q-145 0 -240.5 48t-148.5 147q-86 -103 -183 -149t-229 -46q-175 0 -265.5 85t-90.5 249q0 65 26.5 126t73.5 105q87 81 330 115h4 q6 1 16 2q122 16 158 37q22 13 44 51t22 60q0 51 -56 91t-143 40q-105 0 -161 -42.5t-56 -121.5v-12h-215v18q0 158 116.5 252t313.5 94q127 0 221 -35t146 -102z" />
<glyph unicode="&#xe7;" horiz-adv-x="1100" d="M1044 711h-225q-9 96 -71 151.5t-162 55.5q-134 0 -202.5 -95.5t-68.5 -281.5q0 -182 68 -277.5t197 -95.5q103 0 166.5 58.5t78.5 168.5h222q-16 -201 -145.5 -315.5t-344.5 -114.5q-221 0 -350 154t-129 418q0 270 133.5 423.5t368.5 153.5q205 0 329.5 -107.5 t134.5 -295.5zM527 -10h86v-92h20q110 0 167 -44t57 -128q0 -94 -62 -140.5t-188 -46.5q-50 0 -115 10.5t-139 30.5l-2 107q76 -18 140 -27.5t110 -9.5q53 0 78.5 18.5t25.5 57.5q0 35 -29.5 53t-87.5 18q-25 0 -38 -0.5t-23 -0.5v194z" />
<glyph unicode="&#xe8;" d="M1071 477h-753q3 -151 74 -232t200 -81q92 0 155 46.5t84 129.5h228q-31 -169 -163.5 -272t-317.5 -103q-232 0 -365 154t-133 424q0 267 134 419t370 152q229 0 360 -148.5t131 -408.5q0 -23 -3 -73q-1 -5 -1 -7zM835 643q-1 132 -68 204.5t-189 72.5q-116 0 -183 -71 t-78 -206h518zM297 1575h225l201 -358h-129z" />
<glyph unicode="&#xe9;" d="M1071 477h-753q3 -151 74 -232t200 -81q92 0 155 46.5t84 129.5h228q-31 -169 -163.5 -272t-317.5 -103q-232 0 -365 154t-133 424q0 267 134 419t370 152q229 0 360 -148.5t131 -408.5q0 -23 -3 -73q-1 -5 -1 -7zM835 643q-1 132 -68 204.5t-189 72.5q-116 0 -183 -71 t-78 -206h518zM620 1575h227l-299 -358h-129z" />
<glyph unicode="&#xea;" d="M1071 477h-753q3 -151 74 -232t200 -81q92 0 155 46.5t84 129.5h228q-31 -169 -163.5 -272t-317.5 -103q-232 0 -365 154t-133 424q0 267 134 419t370 152q229 0 360 -148.5t131 -408.5q0 -23 -3 -73q-1 -5 -1 -7zM835 643q-1 132 -68 204.5t-189 72.5q-116 0 -183 -71 t-78 -206h518zM465 1575h212l197 -358h-129l-174 223l-174 -223h-129z" />
<glyph unicode="&#xeb;" d="M1071 477h-753q3 -151 74 -232t200 -81q92 0 155 46.5t84 129.5h228q-31 -169 -163.5 -272t-317.5 -103q-232 0 -365 154t-133 424q0 267 134 419t370 152q229 0 360 -148.5t131 -408.5q0 -23 -3 -73q-1 -5 -1 -7zM835 643q-1 132 -68 204.5t-189 72.5q-116 0 -183 -71 t-78 -206h518zM641 1499h200v-225h-200v225zM303 1499h200v-225h-200v225z" />
<glyph unicode="&#xec;" horiz-adv-x="500" d="M135 1079h230v-1079h-230v1079zM-24 1575h225l201 -358h-129z" />
<glyph unicode="&#xed;" horiz-adv-x="500" d="M135 1079h230v-1079h-230v1079zM299 1575h227l-299 -358h-129z" />
<glyph unicode="&#xee;" horiz-adv-x="500" d="M135 1079h230v-1079h-230v1079zM144 1575h212l197 -358h-129l-174 223l-174 -223h-129z" />
<glyph unicode="&#xef;" horiz-adv-x="500" d="M135 1079h230v-1079h-230v1079zM320 1499h200v-225h-200v225zM-18 1499h200v-225h-200v225z" />
<glyph unicode="&#xf0;" horiz-adv-x="1217" d="M610 881q-140 0 -218.5 -96t-78.5 -267q0 -172 76.5 -264t220.5 -92q143 0 219 92.5t76 265.5q0 172 -77 266.5t-218 94.5zM737 1014q-37 49 -82 91.5t-98 78.5l-291 -127l-43 98l236 105q-55 34 -112 63t-118 53l66 129q84 -29 167 -68t167 -87l286 127l46 -99 l-230 -102q203 -144 306.5 -338.5t103.5 -429.5q0 -252 -142.5 -397.5t-388.5 -145.5q-248 0 -389 144.5t-141 398.5q0 248 133.5 392t361.5 144q42 0 82 -7.5t80 -22.5z" />
<glyph unicode="&#xf1;" horiz-adv-x="1190" d="M1063 686v-686h-229v709q0 98 -51 150t-146 52q-130 0 -202.5 -75t-72.5 -209v-627h-229v1079h221v-145q57 83 142.5 127.5t187.5 44.5q204 0 291.5 -93.5t87.5 -326.5zM813 1513h98q-23 -111 -73 -167t-128 -56q-13 0 -31.5 3t-38.5 8l-91 26q-14 4 -26.5 6t-27.5 2 q-36 0 -57 -16t-35 -55h-98q21 108 70 162.5t127 54.5q19 0 37.5 -2.5t36.5 -8.5l91 -26q13 -4 26 -6t28 -2q35 0 57 18.5t35 58.5z" />
<glyph unicode="&#xf2;" horiz-adv-x="1214" d="M608 918q-143 0 -220 -98t-77 -281t76.5 -280t220.5 -97q143 0 219 97t76 280t-76 281t-219 98zM606 1114q248 0 389.5 -153t141.5 -422t-140.5 -421.5t-388.5 -152.5q-249 0 -389.5 152t-140.5 422t140 422.5t388 152.5zM334 1575h225l201 -358h-129z" />
<glyph unicode="&#xf3;" horiz-adv-x="1214" d="M608 918q-143 0 -220 -98t-77 -281t76.5 -280t220.5 -97q143 0 219 97t76 280t-76 281t-219 98zM606 1114q248 0 389.5 -153t141.5 -422t-140.5 -421.5t-388.5 -152.5q-249 0 -389.5 152t-140.5 422t140 422.5t388 152.5zM657 1575h227l-299 -358h-129z" />
<glyph unicode="&#xf4;" horiz-adv-x="1214" d="M608 918q-143 0 -220 -98t-77 -281t76.5 -280t220.5 -97q143 0 219 97t76 280t-76 281t-219 98zM606 1114q248 0 389.5 -153t141.5 -422t-140.5 -421.5t-388.5 -152.5q-249 0 -389.5 152t-140.5 422t140 422.5t388 152.5zM502 1575h212l197 -358h-129l-174 223l-174 -223 h-129z" />
<glyph unicode="&#xf5;" horiz-adv-x="1214" d="M608 918q-143 0 -220 -98t-77 -281t76.5 -280t220.5 -97q143 0 219 97t76 280t-76 281t-219 98zM606 1114q248 0 389.5 -153t141.5 -422t-140.5 -421.5t-388.5 -152.5q-249 0 -389.5 152t-140.5 422t140 422.5t388 152.5zM813 1513h98q-23 -111 -73 -167t-128 -56 q-13 0 -31.5 3t-38.5 8l-91 26q-14 4 -26.5 6t-27.5 2q-36 0 -57 -16t-35 -55h-98q21 108 70 162.5t127 54.5q19 0 37.5 -2.5t36.5 -8.5l91 -26q13 -4 26 -6t28 -2q35 0 57 18.5t35 58.5z" />
<glyph unicode="&#xf6;" horiz-adv-x="1214" d="M608 918q-143 0 -220 -98t-77 -281t76.5 -280t220.5 -97q143 0 219 97t76 280t-76 281t-219 98zM606 1114q248 0 389.5 -153t141.5 -422t-140.5 -421.5t-388.5 -152.5q-249 0 -389.5 152t-140.5 422t140 422.5t388 152.5zM678 1499h200v-225h-200v225zM340 1499h200v-225 h-200v225z" />
<glyph unicode="&#xf7;" horiz-adv-x="1706" d="M854 367q57 0 97 -40.5t40 -97.5q0 -56 -39.5 -95.5t-97.5 -39.5t-97.5 39t-39.5 96t40.5 97.5t96.5 40.5zM254 694h1198v-166h-1198v166zM854 1128q57 0 97 -41t40 -98q0 -56 -39.5 -95.5t-97.5 -39.5t-97.5 39t-39.5 96t40.5 98t96.5 41z" />
<glyph unicode="&#xf8;" horiz-adv-x="1214" d="M870 756l-485 -512q39 -45 93 -67.5t124 -22.5q144 0 223.5 93.5t79.5 264.5q0 86 -8.5 144t-26.5 100zM821 836q-36 44 -91 67t-124 23q-150 0 -226.5 -99.5t-76.5 -296.5q0 -71 8.5 -118.5t26.5 -89.5zM1092 1130l71 -63l-133 -145q54 -73 80.5 -167.5t26.5 -219.5 q0 -264 -142 -417t-387 -153q-113 0 -201.5 30.5t-156.5 92.5l-131 -143l-72 63l139 150q-55 72 -82.5 167t-27.5 214q0 268 142 421.5t390 153.5q112 0 199 -30t158 -93z" />
<glyph unicode="&#xf9;" horiz-adv-x="1190" d="M129 1079h229v-659q0 -139 45.5 -194.5t151.5 -55.5q133 0 203.5 78t70.5 225v606h228v-1079h-219v147q-54 -83 -141.5 -128.5t-192.5 -45.5q-112 0 -192 33.5t-128 99.5q-30 43 -42.5 100.5t-12.5 186.5v686zM322 1575h225l201 -358h-129z" />
<glyph unicode="&#xfa;" horiz-adv-x="1190" d="M129 1079h229v-659q0 -139 45.5 -194.5t151.5 -55.5q133 0 203.5 78t70.5 225v606h228v-1079h-219v147q-54 -83 -141.5 -128.5t-192.5 -45.5q-112 0 -192 33.5t-128 99.5q-30 43 -42.5 100.5t-12.5 186.5v686zM645 1575h227l-299 -358h-129z" />
<glyph unicode="&#xfb;" horiz-adv-x="1190" d="M129 1079h229v-659q0 -139 45.5 -194.5t151.5 -55.5q133 0 203.5 78t70.5 225v606h228v-1079h-219v147q-54 -83 -141.5 -128.5t-192.5 -45.5q-112 0 -192 33.5t-128 99.5q-30 43 -42.5 100.5t-12.5 186.5v686zM490 1575h212l197 -358h-129l-174 223l-174 -223h-129z" />
<glyph unicode="&#xfc;" horiz-adv-x="1190" d="M129 1079h229v-659q0 -139 45.5 -194.5t151.5 -55.5q133 0 203.5 78t70.5 225v606h228v-1079h-219v147q-54 -83 -141.5 -128.5t-192.5 -45.5q-112 0 -192 33.5t-128 99.5q-30 43 -42.5 100.5t-12.5 186.5v686zM666 1499h200v-225h-200v225zM328 1499h200v-225h-200v225z " />
<glyph unicode="&#xfd;" horiz-adv-x="1065" d="M16 1079h252l269 -831l266 831h246l-449 -1257q-57 -160 -128.5 -214t-211.5 -54q-35 0 -60 2.5t-46 9.5v200q24 -5 45.5 -7.5t40.5 -2.5q64 0 98 22.5t53 76.5l31 90zM581 1575h227l-299 -358h-129z" />
<glyph unicode="&#xfe;" horiz-adv-x="1233" d="M641 913q-138 0 -212.5 -96.5t-74.5 -275.5q0 -187 71.5 -281t213.5 -94q133 0 208 100t75 279q0 173 -74.5 270.5t-206.5 97.5zM135 1473h223v-541q65 95 145 138.5t189 43.5q207 0 334 -156t127 -413q0 -261 -127 -420.5t-332 -159.5q-109 0 -194 42.5t-142 125.5v-563 h-223v1903z" />
<glyph unicode="&#xff;" horiz-adv-x="1065" d="M16 1079h252l269 -831l266 831h246l-449 -1257q-57 -160 -128.5 -214t-211.5 -54q-35 0 -60 2.5t-46 9.5v200q24 -5 45.5 -7.5t40.5 -2.5q64 0 98 22.5t53 76.5l31 90zM602 1499h200v-225h-200v225zM264 1499h200v-225h-200v225z" />
<glyph unicode="&#x131;" horiz-adv-x="500" d="M135 1079h230v-1079h-230v1079z" />
<glyph unicode="&#x152;" horiz-adv-x="2341" d="M1176 1130q-79 93 -169.5 133t-215.5 40q-212 0 -331.5 -150.5t-119.5 -417.5q0 -271 121.5 -419t343.5 -148q116 0 206.5 42.5t164.5 131.5v788zM1176 1352v121h1054v-216h-817v-385h754v-206h-754v-445h844v-221h-1081v121q-86 -84 -185 -123t-227 -39q-312 0 -493 208 t-181 568q0 358 181 567t489 209q127 0 229.5 -39t186.5 -120z" />
<glyph unicode="&#x153;" horiz-adv-x="1923" d="M1092 645h524q0 130 -69.5 205.5t-188.5 75.5q-115 0 -187.5 -76.5t-78.5 -204.5zM311 543q0 -182 74 -282.5t207 -100.5q134 0 210.5 105.5t76.5 293.5q0 172 -75.5 269.5t-207.5 97.5q-134 0 -209.5 -101.5t-75.5 -281.5zM971 156q-69 -98 -162 -144.5t-221 -46.5 q-238 0 -374 150t-136 413q0 278 135 432t377 154q138 0 233.5 -44.5t161.5 -139.5q67 92 162 138t215 46q229 0 360 -147.5t131 -407.5q0 -25 -3 -76l-1 -6h-759q3 -150 75.5 -233.5t200.5 -83.5q90 0 155 48t87 130h227q-27 -166 -159.5 -269.5t-319.5 -103.5 q-131 0 -227.5 48t-157.5 143z" />
<glyph unicode="&#x178;" horiz-adv-x="1251" d="M-23 1473h304l360 -670l348 670h283l-506 -891v-582h-246v571zM697 1896h200v-225h-200v225zM359 1896h200v-225h-200v225z" />
<glyph unicode="&#x2c6;" horiz-adv-x="1024" d="M406 1575h212l197 -358h-129l-174 223l-174 -223h-129z" />
<glyph unicode="&#x2dc;" horiz-adv-x="1024" d="M717 1513h98q-23 -111 -73 -167t-128 -56q-13 0 -31.5 3t-38.5 8l-91 26q-14 4 -26.5 6t-27.5 2q-36 0 -57 -16t-35 -55h-98q21 108 70 162.5t127 54.5q19 0 37.5 -2.5t36.5 -8.5l91 -26q13 -4 26 -6t28 -2q35 0 57 18.5t35 58.5z" />
<glyph unicode="&#x2000;" horiz-adv-x="986" />
<glyph unicode="&#x2001;" horiz-adv-x="1972" />
<glyph unicode="&#x2002;" horiz-adv-x="986" />
<glyph unicode="&#x2003;" horiz-adv-x="1972" />
<glyph unicode="&#x2004;" horiz-adv-x="657" />
<glyph unicode="&#x2005;" horiz-adv-x="493" />
<glyph unicode="&#x2006;" horiz-adv-x="328" />
<glyph unicode="&#x2007;" horiz-adv-x="328" />
<glyph unicode="&#x2008;" horiz-adv-x="246" />
<glyph unicode="&#x2009;" horiz-adv-x="394" />
<glyph unicode="&#x200a;" horiz-adv-x="109" />
<glyph unicode="&#x2010;" horiz-adv-x="659" d="M68 649h524v-211h-524v211z" />
<glyph unicode="&#x2011;" horiz-adv-x="659" d="M68 649h524v-211h-524v211z" />
<glyph unicode="&#x2012;" horiz-adv-x="659" d="M68 649h524v-211h-524v211z" />
<glyph unicode="&#x2013;" horiz-adv-x="1024" d="M0 623h1024v-158h-1024v158z" />
<glyph unicode="&#x2014;" horiz-adv-x="2048" d="M0 465v158h2048v-158h-2048z" />
<glyph unicode="&#x2018;" horiz-adv-x="522" d="M377 1511v-96q-59 -12 -90 -58t-31 -120v-20h121v-230h-234v246q0 114 63.5 189.5t170.5 88.5z" />
<glyph unicode="&#x2019;" horiz-adv-x="522" d="M143 1473h236v-246q0 -114 -64 -190.5t-172 -90.5v98q60 13 91.5 58t31.5 119v20h-123v232z" />
<glyph unicode="&#x201a;" horiz-adv-x="522" d="M143 229h236v-245q0 -114 -64 -189.5t-172 -89.5v96q60 13 91.5 58.5t31.5 120.5v20h-123v229z" />
<glyph unicode="&#x201c;" horiz-adv-x="870" d="M741 1511v-96q-59 -12 -91 -58t-32 -120v-20h123v-230h-235v246q0 113 64 189t171 89zM362 1511v-96q-59 -12 -90.5 -58t-31.5 -120v-20h122v-230h-235v246q0 113 63.5 188t171.5 90z" />
<glyph unicode="&#x201d;" horiz-adv-x="870" d="M506 1473h235v-246q0 -114 -64 -190.5t-171 -90.5v98q60 13 91.5 58t31.5 119v20h-123v232zM127 1473h235v-246q0 -114 -64 -190.5t-171 -90.5v98q60 13 91.5 58t31.5 119v20h-123v232z" />
<glyph unicode="&#x201e;" horiz-adv-x="870" d="M506 229h235v-245q0 -114 -64 -189.5t-171 -89.5v96q59 13 91 59.5t32 121.5v18h-123v229zM127 229h235v-245q0 -114 -63.5 -189.5t-171.5 -89.5v96q60 13 91.5 58.5t31.5 120.5v20h-123v229z" />
<glyph unicode="&#x2022;" horiz-adv-x="1208" d="M307 762q0 123 87 209t210 86q122 0 208.5 -86.5t86.5 -208.5t-87.5 -209.5t-209.5 -87.5q-123 0 -209 87t-86 210z" />
<glyph unicode="&#x2026;" horiz-adv-x="2048" d="M219 258h248v-258h-248v258zM901 258h248v-258h-248v258zM1585 258h248v-258h-248v258z" />
<glyph unicode="&#x202f;" horiz-adv-x="394" />
<glyph unicode="&#x2039;" horiz-adv-x="494" d="M406 918v-203l-211 -172l211 -172v-203l-330 262v223z" />
<glyph unicode="&#x203a;" horiz-adv-x="494" d="M90 918l328 -265v-221l-328 -264v203l209 172l-209 172v203z" />
<glyph unicode="&#x205f;" horiz-adv-x="493" />
<glyph unicode="&#x2122;" horiz-adv-x="1706" d="M809 1460h170l141 -360l133 360h170v-542h-114v428l-160 -428h-59l-166 428v-428h-115v542zM225 1460h467v-94h-168v-448h-129v448h-170v94z" />
<glyph unicode="&#xe000;" horiz-adv-x="1080" d="M0 1080h1080v-1080h-1080v1080z" />
<glyph unicode="&#xf001;" horiz-adv-x="1079" d="M721 1079h225v-1079h-225v1079zM721 1473h225v-230h-225v230zM592 1479v-193l-51 4q-8 1 -15.5 1.5t-13.5 0.5q-63 0 -87 -26.5t-24 -104.5v-82h189v-170h-187v-909h-227v909h-166v170h166v133q0 141 68.5 210t208.5 69q37 0 132 -11z" />
<glyph unicode="&#xfb01;" horiz-adv-x="1079" d="M721 1079h225v-1079h-225v1079zM721 1473h225v-230h-225v230zM592 1479v-193l-51 4q-8 1 -15.5 1.5t-13.5 0.5q-63 0 -87 -26.5t-24 -104.5v-82h189v-170h-187v-909h-227v909h-166v170h166v133q0 141 68.5 210t208.5 69q37 0 132 -11z" />
<glyph unicode="&#xf002;" horiz-adv-x="1083" d="M725 1473h225v-1473h-225v1473zM592 1479v-193l-51 4q-8 1 -15.5 1.5t-13.5 0.5q-63 0 -87 -26.5t-24 -104.5v-82h189v-170h-187v-909h-227v909h-166v170h166v133q0 141 68.5 210t208.5 69q37 0 132 -11z" />
<glyph unicode="&#xfb02;" horiz-adv-x="1083" d="M725 1473h225v-1473h-225v1473zM592 1479v-193l-51 4q-8 1 -15.5 1.5t-13.5 0.5q-63 0 -87 -26.5t-24 -104.5v-82h189v-170h-187v-909h-227v909h-166v170h166v133q0 141 68.5 210t208.5 69q37 0 132 -11z" />
<glyph unicode="&#xfb03;" horiz-adv-x="1688" d="M1323 1079h230v-1079h-230v1079zM1323 1473h230v-232h-230v232zM1186 1479v-193l-49 4q-19 2 -31 2q-62 0 -85.5 -26t-23.5 -105v-82h189v-170h-189v-909h-227v909h-166v170h166v133q0 141 68.5 210t208.5 69q37 0 132 -11zM592 1479v-193l-49 4q-19 2 -31 2 q-62 0 -85.5 -26t-23.5 -105v-82h189v-170h-189v-909h-227v909h-166v170h166v133q0 141 68.5 210t208.5 69q37 0 132 -11z" />
<glyph unicode="&#xfb04;" horiz-adv-x="1694" d="M1327 1473h230v-1473h-230v1473zM1186 1479v-193l-49 4q-19 2 -31 2q-62 0 -85.5 -26t-23.5 -105v-82h189v-170h-189v-909h-227v909h-166v170h166v133q0 141 68.5 210t208.5 69q37 0 132 -11zM592 1479v-193l-49 4q-19 2 -31 2q-62 0 -85.5 -26t-23.5 -105v-82h189v-170 h-189v-909h-227v909h-166v170h166v133q0 141 68.5 210t208.5 69q37 0 132 -11z" />
</font>
</defs>
</svg>
